{
  "accessors": [
    {
      "bufferView": 2,
      "componentType": 5126,
      "count": 89,
      "max": [
        5.735789775848389,
        6.219088077545166,
        11.023116111755371
      ],
      "min": [
        -4.791128158569336,
        -0.16802899539470673,
        3.0688729286193848
      ],
      "type": "VEC3"
    },
    {
      "bufferView": 2,
      "byteOffset": 1068,
      "componentType": 5126,
      "count": 89,
      "max": [
        0.9580243825912476,
        0.9978399872779846,
        0.5405302047729492
      ],
      "min": [
        -0.9960663318634033,
        -0.9776195287704468,
        -0.5214900374412537
      ],
      "type": "VEC3"
    },
    {
      "bufferView": 1,
      "componentType": 5126,
      "count": 89,
      "max": [
        0.4880000054836273,
        -0.016200000420212746
      ],
      "min": [
        0.01640000008046627,
        -0.48669999837875366
      ],
      "type": "VEC2"
    },
    {
      "bufferView": 0,
      "componentType": 5125,
      "count": 348,
      "type": "SCALAR"
    },
    {
      "bufferView": 2,
      "byteOffset": 2136,
      "componentType": 5126,
      "count": 782,
      "max": [
        4.232999801635742,
        3.6954729557037354,
        11.319217681884766
      ],
      "min": [
        -4.232999801635742,
        -4.357254981994629,
        1.0715090036392212
      ],
      "type": "VEC3"
    },
    {
      "bufferView": 2,
      "byteOffset": 11520,
      "componentType": 5126,
      "count": 782,
      "max": [
        0.999924898147583,
        0.9607869982719421,
        0.9999978542327881
      ],
      "min": [
        -0.999961256980896,
        -0.9726861119270325,
        -0.958695113658905
      ],
      "type": "VEC3"
    },
    {
      "bufferView": 1,
      "byteOffset": 712,
      "componentType": 5126,
      "count": 782,
      "max": [
        3.453399896621704,
        0.9882000088691711
      ],
      "min": [
        -1.5020999908447266,
        -0.3549000024795532
      ],
      "type": "VEC2"
    },
    {
      "bufferView": 0,
      "byteOffset": 1392,
      "componentType": 5125,
      "count": 4188,
      "type": "SCALAR"
    },
    {
      "bufferView": 2,
      "byteOffset": 20904,
      "componentType": 5126,
      "count": 329,
      "max": [
        5.952558994293213,
        6.419264793395996,
        14.248499870300293
      ],
      "min": [
        -5.146896839141846,
        -2.3552770614624023,
        2.547985076904297
      ],
      "type": "VEC3"
    },
    {
      "bufferView": 2,
      "byteOffset": 24852,
      "componentType": 5126,
      "count": 329,
      "max": [
        0.9801742434501648,
        0.9964407682418823,
        0.9998074769973755
      ],
      "min": [
        -0.9801742434501648,
        -0.9966212511062622,
        -1.0
      ],
      "type": "VEC3"
    },
    {
      "bufferView": 1,
      "byteOffset": 6968,
      "componentType": 5126,
      "count": 329,
      "max": [
        1.7289999723434448,
        1.9717999696731567
      ],
      "min": [
        -1.392199993133545,
        -0.9902999997138977
      ],
      "type": "VEC2"
    },
    {
      "bufferView": 0,
      "byteOffset": 18144,
      "componentType": 5125,
      "count": 1236,
      "type": "SCALAR"
    }
  ],
  "asset": {
    "extras": {
      "author": "SMF Friends Fan 2024 YouTube Live (https://sketchfab.com/cherylhill28)",
      "license": "CC-BY-4.0 (http://creativecommons.org/licenses/by/4.0/)",
      "source": "https://sketchfab.com/3d-models/battle-for-bikini-bottom-king-jellyfish-775b94df35b54ae697872e18749293e9",
      "title": "Battle for Bikini Bottom - King Jellyfish"
    },
    "generator": "Sketchfab-16.51.0",
    "version": "2.0"
  },
  "bufferViews": [
    {
      "buffer": 0,
      "byteLength": 23088,
      "name": "floatBufferViews",
      "target": 34963
    },
    {
      "buffer": 0,
      "byteLength": 9600,
      "byteOffset": 23088,
      "byteStride": 8,
      "name": "floatBufferViews",
      "target": 34962
    },
    {
      "buffer": 0,
      "byteLength": 28800,
      "byteOffset": 32688,
      "byteStride": 12,
      "name": "floatBufferViews",
      "target": 34962
    }
  ],
  "buffers": [
    {
      "byteLength": 61488,
      "uri": "scene.bin"
    }
  ],
  "images": [
    {
      "uri": "textures/mesh0064mat_baseColor.png"
    },
    {
      "uri": "textures/mesh0065mat_baseColor.png"
    },
    {
      "uri": "textures/mesh0067mat_baseColor.png"
    }
  ],
  "materials": [
    {
      "doubleSided": true,
      "name": "mesh0064mat",
      "pbrMetallicRoughness": {
        "baseColorTexture": {
          "index": 0
        },
        "metallicFactor": 0.0
      }
    },
    {
      "doubleSided": true,
      "name": "mesh0065mat",
      "pbrMetallicRoughness": {
        "baseColorTexture": {
          "index": 1
        },
        "metallicFactor": 0.0
      }
    },
    {
      "doubleSided": true,
      "name": "mesh0067mat",
      "pbrMetallicRoughness": {
        "baseColorTexture": {
          "index": 2
        },
        "metallicFactor": 0.0
      }
    }
  ],
  "meshes": [
    {
      "name": "Object_0",
      "primitives": [
        {
          "attributes": {
            "NORMAL": 1,
            "POSITION": 0,
            "TEXCOORD_0": 2
          },
          "indices": 3,
          "material": 1,
          "mode": 4
        }
      ]
    },
    {
      "name": "Object_1",
      "primitives": [
        {
          "attributes": {
            "NORMAL": 5,
            "POSITION": 4,
            "TEXCOORD_0": 6
          },
          "indices": 7,
          "material": 2,
          "mode": 4
        }
      ]
    },
    {
      "name": "Object_2",
      "primitives": [
        {
          "attributes": {
            "NORMAL": 9,
            "POSITION": 8,
            "TEXCOORD_0": 10
          },
          "indices": 11,
          "material": 0,
          "mode": 4
        }
      ]
    }
  ],
  "nodes": [
    {
      "children": [
        1
      ],
      "matrix": [
        1.0,
        0.0,
        0.0,
        0.0,
        0.0,
        2.220446049250313e-16,
        -1.0,
        0.0,
        0.0,
        1.0,
        2.220446049250313e-16,
        0.0,
        0.0,
        0.0,
        0.0,
        1.0
      ],
      "name": "Sketchfab_model"
    },
    {
      "children": [
        2,
        3,
        4
      ],
      "name": "kingjellyfish.obj.cleaner.materialmerger.gles"
    },
    {
      "mesh": 0,
      "name": "Object_2"
    },
    {
      "mesh": 1,
      "name": "Object_3"
    },
    {
      "mesh": 2,
      "name": "Object_4"
    }
  ],
  "samplers": [
    {
      "magFilter": 9729,
      "minFilter": 9987,
      "wrapS": 10497,
      "wrapT": 10497
    }
  ],
  "scene": 0,
  "scenes": [
    {
      "name": "Sketchfab_Scene",
      "nodes": [
        0
      ]
    }
  ],
  "textures": [
    {
      "sampler": 0,
      "source": 0
    },
    {
      "sampler": 0,
      "source": 1
    },
    {
      "sampler": 0,
      "source": 2
    }
  ]
}
